<?xml version="1.0" encoding="UTF-8" standalone="no"?>
<!DOCTYPE svg PUBLIC "-//W3C//DTD SVG 1.1//EN"
 "http://www.w3.org/Graphics/SVG/1.1/DTD/svg11.dtd">
<!-- Generated by graphviz version 2.36.0 (20140111.2315)
 -->
<!-- Title: robot Pages: 1 -->
<svg width="250pt" height="423pt"
 viewBox="0.00 0.00 250.00 423.00" xmlns="http://www.w3.org/2000/svg" xmlns:xlink="http://www.w3.org/1999/xlink">
<g id="graph0" class="graph" transform="scale(1 1) rotate(0) translate(4 419)">
<title>robot</title>
<polygon fill="#e5e5e5" stroke="none" points="-4,4 -4,-419 246,-419 246,4 -4,4"/>
<g id="clust2" class="cluster"><title>cluster_reply</title>
<polygon fill="#b5e77d" stroke="#b5e77d" points="8,-8 8,-83 234,-83 234,-8 8,-8"/>
<text text-anchor="middle" x="121" y="-67.8" font-family="Times,serif" font-size="14.00">消息记录和回复</text>
</g>
<!-- login -->
<g id="node1" class="node"><title>login</title>
<ellipse fill="#85d1df" stroke="black" cx="166" cy="-325" rx="29.3722" ry="18"/>
<text text-anchor="middle" x="166" y="-321.3" font-family="Times,serif" font-size="14.00">登录</text>
</g>
<!-- updateContact -->
<g id="node2" class="node"><title>updateContact</title>
<ellipse fill="#85d1df" stroke="black" cx="166" cy="-253" rx="75.0904" ry="18"/>
<text text-anchor="middle" x="166" y="-249.3" font-family="Times,serif" font-size="14.00">更新联系人信息</text>
</g>
<!-- login&#45;&gt;updateContact -->
<g id="edge2" class="edge"><title>login&#45;&gt;updateContact</title>
<path fill="none" stroke="darkblue" d="M166,-306.697C166,-298.983 166,-289.712 166,-281.112"/>
<polygon fill="darkblue" stroke="darkblue" points="169.5,-281.104 166,-271.104 162.5,-281.104 169.5,-281.104"/>
</g>
<!-- synccheck -->
<g id="node4" class="node"><title>synccheck</title>
<polygon fill="#85d1df" stroke="black" points="183.25,-199 58.75,-199 58.75,-163 183.25,-163 183.25,-199"/>
<text text-anchor="middle" x="121" y="-177.3" font-family="Times,serif" font-size="14.00">长连接(synccheck)</text>
</g>
<!-- updateContact&#45;&gt;synccheck -->
<g id="edge3" class="edge"><title>updateContact&#45;&gt;synccheck</title>
<path fill="none" stroke="darkblue" d="M155.107,-235.055C149.878,-226.922 143.499,-216.998 137.677,-207.943"/>
<polygon fill="darkblue" stroke="darkblue" points="140.457,-205.794 132.106,-199.275 134.569,-209.58 140.457,-205.794"/>
</g>
<!-- start -->
<g id="node3" class="node"><title>start</title>
<polygon fill="#85d1df" stroke="black" points="166,-415 124.956,-397 166,-379 207.044,-397 166,-415"/>
<text text-anchor="middle" x="166" y="-393.3" font-family="Times,serif" font-size="14.00">开始</text>
</g>
<!-- start&#45;&gt;login -->
<g id="edge1" class="edge"><title>start&#45;&gt;login</title>
<path fill="none" stroke="darkblue" d="M166,-378.697C166,-370.983 166,-361.712 166,-353.112"/>
<polygon fill="darkblue" stroke="darkblue" points="169.5,-353.104 166,-343.104 162.5,-353.104 169.5,-353.104"/>
</g>
<!-- webwxsync -->
<g id="node5" class="node"><title>webwxsync</title>
<polygon fill="#85d1df" stroke="black" points="194,-127 48,-127 48,-91 194,-91 194,-127"/>
<text text-anchor="middle" x="121" y="-105.3" font-family="Times,serif" font-size="14.00">增量更新(webwxsync)</text>
</g>
<!-- synccheck&#45;&gt;webwxsync -->
<g id="edge4" class="edge"><title>synccheck&#45;&gt;webwxsync</title>
<path fill="none" stroke="darkblue" d="M115.084,-162.697C114.289,-154.983 114.062,-145.712 114.405,-137.112"/>
<polygon fill="darkblue" stroke="darkblue" points="117.898,-137.324 115.105,-127.104 110.915,-136.836 117.898,-137.324"/>
</g>
<!-- webwxsync&#45;&gt;updateContact -->
<g id="edge6" class="edge"><title>webwxsync&#45;&gt;updateContact</title>
<path fill="none" stroke="darkblue" d="M156.165,-127.059C169.982,-135.746 184.347,-147.737 192,-163 202.123,-183.188 193.341,-207.979 183.336,-226.265"/>
<polygon fill="darkblue" stroke="darkblue" points="180.297,-224.528 178.245,-234.922 186.331,-228.076 180.297,-224.528"/>
</g>
<!-- webwxsync&#45;&gt;synccheck -->
<g id="edge5" class="edge"><title>webwxsync&#45;&gt;synccheck</title>
<path fill="none" stroke="darkblue" d="M126.895,-127.104C127.701,-134.791 127.937,-144.054 127.604,-152.665"/>
<polygon fill="darkblue" stroke="darkblue" points="124.109,-152.48 126.916,-162.697 131.092,-152.96 124.109,-152.48"/>
</g>
<!-- logMsg -->
<g id="node6" class="node"><title>logMsg</title>
<ellipse fill="#85d1df" stroke="black" cx="178" cy="-34" rx="48.1437" ry="18"/>
<text text-anchor="middle" x="178" y="-30.3" font-family="Times,serif" font-size="14.00">记录消息</text>
</g>
<!-- webwxsync&#45;&gt;logMsg -->
<g id="edge7" class="edge"><title>webwxsync&#45;&gt;logMsg</title>
<path fill="none" stroke="darkblue" d="M134.508,-90.7C141.71,-81.477 150.697,-69.9676 158.629,-59.809"/>
<polygon fill="darkblue" stroke="darkblue" points="161.585,-61.7093 164.981,-51.6733 156.068,-57.4012 161.585,-61.7093"/>
</g>
<!-- reply -->
<g id="node7" class="node"><title>reply</title>
<ellipse fill="#85d1df" stroke="black" cx="64" cy="-34" rx="48.1437" ry="18"/>
<text text-anchor="middle" x="64" y="-30.3" font-family="Times,serif" font-size="14.00">处理消息</text>
</g>
<!-- webwxsync&#45;&gt;reply -->
<g id="edge8" class="edge"><title>webwxsync&#45;&gt;reply</title>
<path fill="none" stroke="darkblue" d="M107.492,-90.7C100.29,-81.477 91.3034,-69.9676 83.3714,-59.809"/>
<polygon fill="darkblue" stroke="darkblue" points="85.9319,-57.4012 77.0189,-51.6733 80.4146,-61.7093 85.9319,-57.4012"/>
</g>
</g>
</svg>
