<?xml version="1.0" encoding="UTF-8" standalone="no"?>
<!DOCTYPE svg PUBLIC "-//W3C//DTD SVG 1.1//EN"
 "http://www.w3.org/Graphics/SVG/1.1/DTD/svg11.dtd">
<!-- Generated by graphviz version 2.36.0 (20140111.2315)
 -->
<!-- Title: robot Pages: 1 -->
<svg width="358pt" height="260pt"
 viewBox="0.00 0.00 358.00 260.00" xmlns="http://www.w3.org/2000/svg" xmlns:xlink="http://www.w3.org/1999/xlink">
<g id="graph0" class="graph" transform="scale(1 1) rotate(0) translate(4 256)">
<title>robot</title>
<polygon fill="#f6f6f6" stroke="none" points="-4,4 -4,-256 354,-256 354,4 -4,4"/>
<!-- webwx -->
<g id="node1" class="node"><title>webwx</title>
<polygon fill="#85d1df" stroke="black" points="219,-180 131,-180 131,-144 219,-144 219,-180"/>
<text text-anchor="middle" x="175" y="-158.3" font-family="Times,serif" font-size="14.00">微信机器人</text>
</g>
<!-- main -->
<g id="node8" class="node"><title>main</title>
<polygon fill="#85d1df" stroke="black" points="212,-252 138,-252 138,-216 212,-216 212,-252"/>
<text text-anchor="middle" x="175" y="-230.3" font-family="Times,serif" font-size="14.00">入口程序</text>
</g>
<!-- webwx&#45;&#45;main -->
<g id="edge5" class="edge"><title>webwx&#45;&#45;main</title>
<path fill="none" stroke="darkblue" d="M175,-180.303C175,-191.154 175,-205.083 175,-215.896"/>
</g>
<!-- dialog -->
<g id="node2" class="node"><title>dialog</title>
<polygon fill="#85d1df" stroke="black" points="215,-36 141,-36 141,-0 215,-0 215,-36"/>
<text text-anchor="middle" x="178" y="-14.3" font-family="Times,serif" font-size="14.00">对话引擎</text>
</g>
<!-- reply -->
<g id="node5" class="node"><title>reply</title>
<polygon fill="#85d1df" stroke="black" points="258,-108 184,-108 184,-72 258,-72 258,-108"/>
<text text-anchor="middle" x="221" y="-86.3" font-family="Times,serif" font-size="14.00">消息回复</text>
</g>
<!-- dialog&#45;&#45;reply -->
<g id="edge6" class="edge"><title>dialog&#45;&#45;reply</title>
<path fill="none" stroke="darkblue" d="M188.629,-36.3034C195.294,-47.1537 203.851,-61.0833 210.493,-71.8957"/>
</g>
<!-- global -->
<g id="node3" class="node"><title>global</title>
<polygon fill="#85d1df" stroke="black" points="74,-108 0,-108 0,-72 74,-72 74,-108"/>
<text text-anchor="middle" x="37" y="-86.3" font-family="Times,serif" font-size="14.00">变量声明</text>
</g>
<!-- global&#45;&#45;webwx -->
<g id="edge1" class="edge"><title>global&#45;&#45;webwx</title>
<path fill="none" stroke="darkblue" d="M70.7586,-108.124C92.1435,-118.971 119.702,-132.95 141.112,-143.81"/>
</g>
<!-- logger -->
<g id="node4" class="node"><title>logger</title>
<polygon fill="#85d1df" stroke="black" points="166,-108 92,-108 92,-72 166,-72 166,-108"/>
<text text-anchor="middle" x="129" y="-86.3" font-family="Times,serif" font-size="14.00">消息记录</text>
</g>
<!-- logger&#45;&#45;webwx -->
<g id="edge2" class="edge"><title>logger&#45;&#45;webwx</title>
<path fill="none" stroke="darkblue" d="M140.371,-108.303C147.501,-119.154 156.655,-133.083 163.76,-143.896"/>
</g>
<!-- reply&#45;&#45;webwx -->
<g id="edge3" class="edge"><title>reply&#45;&#45;webwx</title>
<path fill="none" stroke="darkblue" d="M209.629,-108.303C202.499,-119.154 193.345,-133.083 186.24,-143.896"/>
</g>
<!-- cache -->
<g id="node6" class="node"><title>cache</title>
<polygon fill="#85d1df" stroke="black" points="350,-108 276,-108 276,-72 350,-72 350,-108"/>
<text text-anchor="middle" x="313" y="-86.3" font-family="Times,serif" font-size="14.00">信息缓存</text>
</g>
<!-- cache&#45;&#45;webwx -->
<g id="edge4" class="edge"><title>cache&#45;&#45;webwx</title>
<path fill="none" stroke="darkblue" d="M279.241,-108.124C257.857,-118.971 230.298,-132.95 208.888,-143.81"/>
</g>
<!-- apikeys -->
<g id="node7" class="node"><title>apikeys</title>
<polygon fill="#85d1df" stroke="black" points="295,-36 233,-36 233,-0 295,-0 295,-36"/>
<text text-anchor="middle" x="264" y="-14.3" font-family="Times,serif" font-size="14.00">api配置</text>
</g>
<!-- apikeys&#45;&#45;reply -->
<g id="edge7" class="edge"><title>apikeys&#45;&#45;reply</title>
<path fill="none" stroke="darkblue" d="M253.371,-36.3034C246.706,-47.1537 238.149,-61.0833 231.507,-71.8957"/>
</g>
</g>
</svg>
