<?xml version="1.0" encoding="UTF-8" standalone="no"?>
<!DOCTYPE svg PUBLIC "-//W3C//DTD SVG 1.1//EN"
 "http://www.w3.org/Graphics/SVG/1.1/DTD/svg11.dtd">
<!-- Generated by graphviz version 2.36.0 (20140111.2315)
 -->
<!-- Title: webwx Pages: 1 -->
<svg width="1228pt" height="815pt"
 viewBox="0.00 0.00 1228.00 815.29" xmlns="http://www.w3.org/2000/svg" xmlns:xlink="http://www.w3.org/1999/xlink">
<g id="graph0" class="graph" transform="scale(1 1) rotate(0) translate(4 811.292)">
<title>webwx</title>
<polygon fill="#e5e5e5" stroke="none" points="-4,4 -4,-811.292 1224,-811.292 1224,4 -4,4"/>
<g id="clust1" class="cluster"><title>cluster_login</title>
<polygon fill="#b5e77d" stroke="#b5e77d" points="112,-169.292 112,-440.292 436,-440.292 436,-169.292 112,-169.292"/>
<text text-anchor="middle" x="274" y="-425.092" font-family="Times,serif" font-size="14.00">login.weixin.qq.com</text>
</g>
<g id="clust2" class="cluster"><title>cluster_getQrImage</title>
<polygon fill="#b5e77d" stroke="#b5e77d" points="120,-218.292 120,-369.292 236,-369.292 236,-218.292 120,-218.292"/>
<text text-anchor="middle" x="178" y="-354.092" font-family="Times,serif" font-size="14.00">获取二维码图像</text>
</g>
<g id="clust4" class="cluster"><title>cluster_checkScanStatus</title>
<polygon fill="#b5e77d" stroke="#b5e77d" points="266,-177.292 266,-409.292 428,-409.292 428,-177.292 266,-177.292"/>
<text text-anchor="middle" x="347" y="-394.092" font-family="Times,serif" font-size="14.00">检查扫描状态</text>
<text text-anchor="middle" x="347" y="-379.092" font-family="Times,serif" font-size="14.00">(login)</text>
</g>
<g id="clust6" class="cluster"><title>cluster_webpush</title>
<polygon fill="#b5e77d" stroke="#b5e77d" points="922,-40.2921 922,-150.292 1072,-150.292 1072,-40.2921 922,-40.2921"/>
<text text-anchor="middle" x="997" y="-135.092" font-family="Times,serif" font-size="14.00">webpush.weixin.qq.com</text>
</g>
<g id="clust7" class="cluster"><title>cluster_Client</title>
<polygon fill="#b5e77d" stroke="#b5e77d" points="554,-469.292 554,-799.292 1212,-799.292 1212,-469.292 554,-469.292"/>
<text text-anchor="middle" x="883" y="-784.092" font-family="Times,serif" font-size="14.00">客户端AngularJS应用</text>
</g>
<g id="clust8" class="cluster"><title>cluster_UI</title>
<polygon fill="#b5e77d" stroke="#b5e77d" points="904,-477.292 904,-768.292 1204,-768.292 1204,-477.292 904,-477.292"/>
<text text-anchor="middle" x="1054" y="-753.092" font-family="Times,serif" font-size="14.00">用户界面</text>
</g>
<g id="clust11" class="cluster"><title>cluster_webwx</title>
<polygon fill="#b5e77d" stroke="#b5e77d" points="568,-158.292 568,-454.292 1068,-454.292 1068,-158.292 568,-158.292"/>
<text text-anchor="middle" x="818" y="-439.092" font-family="Times,serif" font-size="14.00">wx.qq.com</text>
</g>
<!-- getUuid -->
<g id="node1" class="node"><title>getUuid</title>
<polygon fill="#85d1df" stroke="black" points="217.5,-338.292 138.5,-338.292 138.5,-300.292 217.5,-300.292 217.5,-338.292"/>
<text text-anchor="middle" x="178" y="-323.092" font-family="Times,serif" font-size="14.00">获取UUID</text>
<text text-anchor="middle" x="178" y="-308.092" font-family="Times,serif" font-size="14.00">(jslogin)</text>
</g>
<!-- qrImage -->
<g id="node2" class="node"><title>qrImage</title>
<polygon fill="#85d1df" stroke="black" points="222,-264.292 134,-264.292 134,-226.292 222,-226.292 222,-264.292"/>
<text text-anchor="middle" x="178" y="-249.092" font-family="Times,serif" font-size="14.00">获取二维码</text>
<text text-anchor="middle" x="178" y="-234.092" font-family="Times,serif" font-size="14.00">(qrcode))</text>
</g>
<!-- getUuid&#45;&gt;qrImage -->
<g id="edge5" class="edge"><title>getUuid&#45;&gt;qrImage</title>
<path fill="none" stroke="darkblue" d="M178,-300.043C178,-292.226 178,-283.024 178,-274.418"/>
<polygon fill="darkblue" stroke="darkblue" points="181.5,-274.349 178,-264.349 174.5,-274.349 181.5,-274.349"/>
<text text-anchor="middle" x="167.5" y="-278.592" font-family="Times,serif" font-size="14.00" fill="darkblue">uuid</text>
</g>
<!-- login -->
<g id="node4" class="node"><title>login</title>
<polygon fill="#85d1df" stroke="black" points="405,-223.292 289,-223.292 289,-185.292 405,-185.292 405,-223.292"/>
<text text-anchor="middle" x="347" y="-208.092" font-family="Times,serif" font-size="14.00">等待扫描二维码</text>
<text text-anchor="middle" x="347" y="-193.092" font-family="Times,serif" font-size="14.00">(login))</text>
</g>
<!-- qrImage&#45;&gt;login -->
<g id="edge2" class="edge"><title>qrImage&#45;&gt;login</title>
<path fill="none" stroke="darkblue" d="M222.007,-234.734C239.371,-230.47 259.819,-225.45 279.047,-220.73"/>
<polygon fill="darkblue" stroke="darkblue" points="280.091,-224.077 288.968,-218.294 278.422,-217.279 280.091,-224.077"/>
</g>
<!-- start -->
<g id="node3" class="node"><title>start</title>
<polygon fill="#85d1df" stroke="black" points="42,-337.292 0.775388,-319.292 42,-301.292 83.2246,-319.292 42,-337.292"/>
<text text-anchor="middle" x="42" y="-315.592" font-family="Times,serif" font-size="14.00">开始</text>
</g>
<!-- start&#45;&gt;getUuid -->
<g id="edge1" class="edge"><title>start&#45;&gt;getUuid</title>
<path fill="none" stroke="darkblue" d="M83.5681,-319.292C97.5768,-319.292 113.422,-319.292 128.031,-319.292"/>
<polygon fill="darkblue" stroke="darkblue" points="128.406,-322.792 138.406,-319.292 128.406,-315.792 128.406,-322.792"/>
</g>
<!-- login&#45;&gt;login -->
<g id="edge6" class="edge"><title>login&#45;&gt;login</title>
<path fill="none" stroke="darkblue" d="M330.26,-223.329C327.943,-232.823 333.523,-241.292 347,-241.292 355.212,-241.292 360.492,-238.147 362.84,-233.542"/>
<polygon fill="darkblue" stroke="darkblue" points="366.349,-233.598 363.74,-223.329 359.376,-232.983 366.349,-233.598"/>
<text text-anchor="middle" x="347" y="-245.092" font-family="Times,serif" font-size="14.00" fill="darkblue">408</text>
</g>
<!-- scaned -->
<g id="node7" class="node"><title>scaned</title>
<polygon fill="#85d1df" stroke="black" points="419.5,-330.292 274.5,-330.292 274.5,-292.292 419.5,-292.292 419.5,-330.292"/>
<text text-anchor="middle" x="347" y="-315.092" font-family="Times,serif" font-size="14.00">已扫描请在手机确认</text>
<text text-anchor="middle" x="347" y="-300.092" font-family="Times,serif" font-size="14.00">(login))</text>
</g>
<!-- login&#45;&gt;scaned -->
<g id="edge8" class="edge"><title>login&#45;&gt;scaned</title>
<path fill="none" stroke="darkblue" d="M347,-223.422C347,-239.677 347,-263.275 347,-281.924"/>
<polygon fill="darkblue" stroke="darkblue" points="343.5,-281.967 347,-291.967 350.5,-281.968 343.5,-281.967"/>
<text text-anchor="middle" x="336.5" y="-254.092" font-family="Times,serif" font-size="14.00" fill="darkblue">201</text>
</g>
<!-- synccheck -->
<g id="node5" class="node"><title>synccheck</title>
<polygon fill="#85d1df" stroke="black" points="1038,-86.2921 956,-86.2921 956,-48.2921 1038,-48.2921 1038,-86.2921"/>
<text text-anchor="middle" x="997" y="-71.0921" font-family="Times,serif" font-size="14.00">长连接</text>
<text text-anchor="middle" x="997" y="-56.0921" font-family="Times,serif" font-size="14.00">(synccheck)</text>
</g>
<!-- synccheck&#45;&gt;synccheck -->
<g id="edge9" class="edge"><title>synccheck&#45;&gt;synccheck</title>
<path fill="none" stroke="darkblue" d="M969.706,-86.3293C965.929,-95.8234 975.027,-104.292 997,-104.292 1010.39,-104.292 1019,-101.147 1022.83,-96.5422"/>
<polygon fill="darkblue" stroke="darkblue" points="1026.34,-96.7256 1024.29,-86.3293 1019.41,-95.7296 1026.34,-96.7256"/>
<text text-anchor="middle" x="997" y="-108.092" font-family="Times,serif" font-size="14.00" fill="darkblue">无须更新</text>
</g>
<!-- webwxlogout -->
<g id="node6" class="node"><title>webwxlogout</title>
<polygon fill="#85d1df" stroke="black" points="1046.5,-311.292 947.5,-311.292 947.5,-273.292 1046.5,-273.292 1046.5,-311.292"/>
<text text-anchor="middle" x="997" y="-296.092" font-family="Times,serif" font-size="14.00">登出</text>
<text text-anchor="middle" x="997" y="-281.092" font-family="Times,serif" font-size="14.00">(webwxlogout)</text>
</g>
<!-- synccheck&#45;&gt;webwxlogout -->
<g id="edge3" class="edge"><title>synccheck&#45;&gt;webwxlogout</title>
<path fill="none" stroke="red" stroke-dasharray="1,5" d="M997,-86.4754C997,-125.912 997,-216.303 997,-263.068"/>
<polygon fill="red" stroke="red" points="993.5,-263.157 997,-273.157 1000.5,-263.157 993.5,-263.157"/>
<text text-anchor="middle" x="986.5" y="-176.092" font-family="Times,serif" font-size="14.00" fill="red">掉线</text>
</g>
<!-- webwxsync -->
<g id="node18" class="node"><title>webwxsync</title>
<polygon fill="#85d1df" stroke="black" points="893.5,-314.292 748.5,-314.292 748.5,-276.292 893.5,-276.292 893.5,-314.292"/>
<text text-anchor="middle" x="821" y="-299.092" font-family="Times,serif" font-size="14.00">更新服务器推送信息</text>
<text text-anchor="middle" x="821" y="-284.092" font-family="Times,serif" font-size="14.00">(webwxsync)</text>
</g>
<!-- synccheck&#45;&gt;webwxsync -->
<g id="edge22" class="edge"><title>synccheck&#45;&gt;webwxsync</title>
<path fill="none" stroke="darkblue" d="M978.657,-86.4229C958.436,-104.594 925.101,-132.715 904,-163.292 897.437,-172.803 899.267,-177.006 894,-187.292 879.478,-215.653 860.505,-246.276 845.681,-267.798"/>
<polygon fill="darkblue" stroke="darkblue" points="842.701,-265.952 839.813,-276.145 848.428,-269.977 842.701,-265.952"/>
</g>
<!-- webwxlogout&#45;&gt;getUuid -->
<g id="edge4" class="edge"><title>webwxlogout&#45;&gt;getUuid</title>
<path fill="none" stroke="darkblue" d="M947.333,-304.414C933.07,-308.679 917.648,-314.006 904,-320.292 820.684,-358.668 818.057,-405.597 730,-431.292 630.943,-460.198 359.217,-457.546 266,-413.292 235.853,-398.98 211.152,-369.143 195.874,-346.902"/>
<polygon fill="darkblue" stroke="darkblue" points="198.743,-344.896 190.297,-338.501 192.911,-348.768 198.743,-344.896"/>
<text text-anchor="middle" x="494" y="-454.092" font-family="Times,serif" font-size="14.00" fill="darkblue">重定向重新登录</text>
</g>
<!-- scaned&#45;&gt;scaned -->
<g id="edge7" class="edge"><title>scaned&#45;&gt;scaned</title>
<path fill="none" stroke="darkblue" d="M330.26,-330.329C327.943,-339.823 333.523,-348.292 347,-348.292 355.212,-348.292 360.492,-345.147 362.84,-340.542"/>
<polygon fill="darkblue" stroke="darkblue" points="366.349,-340.598 363.74,-330.329 359.376,-339.983 366.349,-340.598"/>
<text text-anchor="middle" x="347" y="-352.092" font-family="Times,serif" font-size="14.00" fill="darkblue">408</text>
</g>
<!-- webwxnewloginpage -->
<g id="node15" class="node"><title>webwxnewloginpage</title>
<polygon fill="#85d1df" stroke="black" points="716,-260.292 576,-260.292 576,-222.292 716,-222.292 716,-260.292"/>
<text text-anchor="middle" x="646" y="-245.092" font-family="Times,serif" font-size="14.00">重定向的登录页面</text>
<text text-anchor="middle" x="646" y="-230.092" font-family="Times,serif" font-size="14.00">(webwxnewloginpage)</text>
</g>
<!-- scaned&#45;&gt;webwxnewloginpage -->
<g id="edge11" class="edge"><title>scaned&#45;&gt;webwxnewloginpage</title>
<path fill="none" stroke="darkblue" d="M419.517,-294.436C463.732,-284.015 520.533,-270.628 566.063,-259.897"/>
<polygon fill="darkblue" stroke="darkblue" points="566.964,-263.28 575.894,-257.58 565.358,-256.467 566.964,-263.28"/>
<text text-anchor="middle" x="494" y="-293.092" font-family="Times,serif" font-size="14.00" fill="darkblue">200</text>
</g>
<!-- updateMsg -->
<g id="node8" class="node"><title>updateMsg</title>
<polygon fill="#85d1df" stroke="black" points="729.066,-559.292 687.533,-590.346 604.467,-590.346 562.934,-559.292 604.467,-528.238 687.533,-528.238 729.066,-559.292"/>
<text text-anchor="middle" x="646" y="-563.092" font-family="Times,serif" font-size="14.00">查看需要</text>
<text text-anchor="middle" x="646" y="-548.092" font-family="Times,serif" font-size="14.00">更新哪些内容</text>
</g>
<!-- showText -->
<g id="node11" class="node"><title>showText</title>
<ellipse fill="#85d1df" stroke="black" cx="997" cy="-611.292" rx="66.0889" ry="18"/>
<text text-anchor="middle" x="997" y="-607.592" font-family="Times,serif" font-size="14.00">展示文本信息</text>
</g>
<!-- updateMsg&#45;&gt;showText -->
<g id="edge10" class="edge"><title>updateMsg&#45;&gt;showText</title>
<path fill="none" stroke="darkblue" d="M715.535,-569.504C777.213,-578.693 867.317,-592.119 928.633,-601.255"/>
<polygon fill="darkblue" stroke="darkblue" points="928.189,-604.727 938.596,-602.739 929.221,-597.803 928.189,-604.727"/>
<text text-anchor="middle" x="821" y="-599.092" font-family="Times,serif" font-size="14.00" fill="darkblue">Content经过一定替换</text>
</g>
<!-- updateStatus -->
<g id="node13" class="node"><title>updateStatus</title>
<ellipse fill="#85d1df" stroke="black" cx="997" cy="-665.292" rx="85.2851" ry="18"/>
<text text-anchor="middle" x="997" y="-661.592" font-family="Times,serif" font-size="14.00">其他状态信息更新</text>
</g>
<!-- updateMsg&#45;&gt;updateStatus -->
<g id="edge19" class="edge"><title>updateMsg&#45;&gt;updateStatus</title>
<path fill="none" stroke="darkblue" d="M691.661,-587.317C708.76,-597.042 728.781,-607.26 748,-614.292 801.488,-633.861 864.364,-646.686 913.422,-654.581"/>
<polygon fill="darkblue" stroke="darkblue" points="912.935,-658.047 923.357,-656.143 914.022,-651.132 912.935,-658.047"/>
<text text-anchor="middle" x="821" y="-654.092" font-family="Times,serif" font-size="14.00" fill="darkblue">其他状态变化</text>
</g>
<!-- updateContact -->
<g id="node14" class="node"><title>updateContact</title>
<ellipse fill="#85d1df" stroke="black" cx="997" cy="-719.292" rx="75.2868" ry="18"/>
<text text-anchor="middle" x="997" y="-715.592" font-family="Times,serif" font-size="14.00">更新联系人变动</text>
</g>
<!-- updateMsg&#45;&gt;updateContact -->
<g id="edge15" class="edge"><title>updateMsg&#45;&gt;updateContact</title>
<path fill="none" stroke="darkblue" d="M667.186,-590.426C685.272,-615.707 714.126,-650.189 748,-669.292 798.109,-697.55 861.86,-709.981 912.178,-715.384"/>
<polygon fill="darkblue" stroke="darkblue" points="912.079,-718.891 922.378,-716.403 912.776,-711.926 912.079,-718.891"/>
<text text-anchor="middle" x="821" y="-716.092" font-family="Times,serif" font-size="14.00" fill="darkblue">modContactList</text>
</g>
<!-- getVoice -->
<g id="node20" class="node"><title>getVoice</title>
<polygon fill="#85d1df" stroke="black" points="1052,-423.292 942,-423.292 942,-385.292 1052,-385.292 1052,-423.292"/>
<text text-anchor="middle" x="997" y="-408.092" font-family="Times,serif" font-size="14.00">获取语音</text>
<text text-anchor="middle" x="997" y="-393.092" font-family="Times,serif" font-size="14.00">(webwxgetvoice)</text>
</g>
<!-- updateMsg&#45;&gt;getVoice -->
<g id="edge13" class="edge"><title>updateMsg&#45;&gt;getVoice</title>
<path fill="none" stroke="darkblue" d="M723.012,-554.765C786.277,-549.416 869.771,-538.167 894,-515.292 907.952,-502.119 893.476,-489.337 904,-473.292 915.749,-455.379 933.811,-440.361 950.83,-428.957"/>
<polygon fill="darkblue" stroke="darkblue" points="953.073,-431.676 959.596,-423.327 949.29,-425.787 953.073,-431.676"/>
<text text-anchor="middle" x="821" y="-557.092" font-family="Times,serif" font-size="14.00" fill="darkblue">msgiId</text>
</g>
<!-- getImgMsg -->
<g id="node21" class="node"><title>getImgMsg</title>
<polygon fill="#85d1df" stroke="black" points="1060,-367.292 934,-367.292 934,-329.292 1060,-329.292 1060,-367.292"/>
<text text-anchor="middle" x="997" y="-352.092" font-family="Times,serif" font-size="14.00">获取图像</text>
<text text-anchor="middle" x="997" y="-337.092" font-family="Times,serif" font-size="14.00">(webwxgetmsgimg)</text>
</g>
<!-- updateMsg&#45;&gt;getImgMsg -->
<g id="edge14" class="edge"><title>updateMsg&#45;&gt;getImgMsg</title>
<path fill="none" stroke="darkblue" d="M688.485,-528.842C706.091,-517.16 727.301,-504.643 748,-496.292 809.518,-471.474 849.431,-514.425 894,-465.292 920.743,-435.81 878.552,-406.899 904,-376.292 909.524,-369.649 916.574,-364.547 924.307,-360.635"/>
<polygon fill="darkblue" stroke="darkblue" points="925.877,-363.769 933.649,-356.568 923.083,-357.351 925.877,-363.769"/>
<text text-anchor="middle" x="821" y="-500.092" font-family="Times,serif" font-size="14.00" fill="darkblue">msgiId</text>
</g>
<!-- sendMsg -->
<g id="node9" class="node"><title>sendMsg</title>
<ellipse fill="#85d1df" stroke="black" cx="1148" cy="-503.292" rx="48.1917" ry="18"/>
<text text-anchor="middle" x="1148" y="-499.592" font-family="Times,serif" font-size="14.00">发送消息</text>
</g>
<!-- webwxsendmsg -->
<g id="node19" class="node"><title>webwxsendmsg</title>
<polygon fill="#85d1df" stroke="black" points="702.5,-204.292 589.5,-204.292 589.5,-166.292 702.5,-166.292 702.5,-204.292"/>
<text text-anchor="middle" x="646" y="-189.092" font-family="Times,serif" font-size="14.00">发送消息</text>
<text text-anchor="middle" x="646" y="-174.092" font-family="Times,serif" font-size="14.00">(webwxsendmsg)</text>
</g>
<!-- sendMsg&#45;&gt;webwxsendmsg -->
<g id="edge18" class="edge"><title>sendMsg&#45;&gt;webwxsendmsg</title>
<path fill="none" stroke="darkblue" d="M1147.46,-485.264C1149.07,-406.798 1150.92,-96.2846 1082,-36.2921 957.385,72.1794 749.955,-92.1142 675.055,-159.041"/>
<polygon fill="darkblue" stroke="darkblue" points="672.48,-156.651 667.406,-165.951 677.173,-161.845 672.48,-156.651"/>
<text text-anchor="middle" x="821" y="-103.092" font-family="Times,serif" font-size="14.00" fill="darkblue">文本消息</text>
</g>
<!-- playVoice -->
<g id="node10" class="node"><title>playVoice</title>
<ellipse fill="#85d1df" stroke="black" cx="997" cy="-557.292" rx="48.1917" ry="18"/>
<text text-anchor="middle" x="997" y="-553.592" font-family="Times,serif" font-size="14.00">播放声音</text>
</g>
<!-- showImg -->
<g id="node12" class="node"><title>showImg</title>
<ellipse fill="#85d1df" stroke="black" cx="997" cy="-503.292" rx="48.1917" ry="18"/>
<text text-anchor="middle" x="997" y="-499.592" font-family="Times,serif" font-size="14.00">显示图像</text>
</g>
<!-- webwxinit -->
<g id="node16" class="node"><title>webwxinit</title>
<polygon fill="#85d1df" stroke="black" points="701,-334.292 591,-334.292 591,-296.292 701,-296.292 701,-334.292"/>
<text text-anchor="middle" x="646" y="-319.092" font-family="Times,serif" font-size="14.00">web微信初始化</text>
<text text-anchor="middle" x="646" y="-304.092" font-family="Times,serif" font-size="14.00">(webwxinit)</text>
</g>
<!-- webwxnewloginpage&#45;&gt;webwxinit -->
<g id="edge12" class="edge"><title>webwxnewloginpage&#45;&gt;webwxinit</title>
<path fill="none" stroke="darkblue" d="M646,-260.349C646,-268.143 646,-277.338 646,-285.954"/>
<polygon fill="darkblue" stroke="darkblue" points="642.5,-286.043 646,-296.043 649.5,-286.043 642.5,-286.043"/>
<text text-anchor="middle" x="635.5" y="-274.592" font-family="Times,serif" font-size="14.00" fill="darkblue">会话身份信息</text>
</g>
<!-- webwxgetcontact -->
<g id="node17" class="node"><title>webwxgetcontact</title>
<polygon fill="#85d1df" stroke="black" points="706,-422.792 586,-422.792 586,-369.792 706,-369.792 706,-422.792"/>
<text text-anchor="middle" x="646" y="-407.592" font-family="Times,serif" font-size="14.00">获取联系人信息</text>
<text text-anchor="middle" x="646" y="-392.592" font-family="Times,serif" font-size="14.00">初始synckey</text>
<text text-anchor="middle" x="646" y="-377.592" font-family="Times,serif" font-size="14.00">(webwxgetcontact)</text>
</g>
<!-- webwxinit&#45;&gt;webwxgetcontact -->
<g id="edge20" class="edge"><title>webwxinit&#45;&gt;webwxgetcontact</title>
<path fill="none" stroke="darkblue" d="M646,-334.593C646,-342.932 646,-351.27 646,-359.609"/>
<polygon fill="darkblue" stroke="darkblue" points="642.5,-359.781 646,-369.781 649.5,-359.781 642.5,-359.781"/>
</g>
<!-- webwxgetcontact&#45;&gt;synccheck -->
<g id="edge21" class="edge"><title>webwxgetcontact&#45;&gt;synccheck</title>
<path fill="none" stroke="darkblue" d="M701.668,-369.952C712.377,-362.624 722.575,-353.747 730,-343.292 750.099,-314.991 729.492,-296.659 748,-267.292 798.948,-186.451 894.073,-123.638 950.548,-91.3368"/>
<polygon fill="darkblue" stroke="darkblue" points="952.279,-94.3792 959.268,-86.4165 948.839,-88.2828 952.279,-94.3792"/>
</g>
<!-- webwxsync&#45;&gt;synccheck -->
<g id="edge24" class="edge"><title>webwxsync&#45;&gt;synccheck</title>
<path fill="none" stroke="red" stroke-dasharray="5,2" d="M831.372,-275.941C845.863,-251.236 874.108,-208.142 894,-169.292 899.267,-159.006 897.437,-154.803 904,-145.292 917.413,-125.856 935.768,-107.413 952.557,-93.2164"/>
<polygon fill="red" stroke="red" points="955.119,-95.6425 960.644,-86.6025 950.687,-90.2239 955.119,-95.6425"/>
</g>
<!-- webwxsync&#45;&gt;updateMsg -->
<g id="edge23" class="edge"><title>webwxsync&#45;&gt;updateMsg</title>
<path fill="none" stroke="green" stroke-width="2" d="M810.82,-314.532C795.627,-345.719 763.579,-408.806 730,-458.292 715.523,-479.627 697.55,-501.916 682.035,-520.111"/>
<polygon fill="green" stroke="green" stroke-width="2" points="678.973,-518.302 675.101,-528.164 684.278,-522.87 678.973,-518.302"/>
</g>
<!-- getVoice&#45;&gt;playVoice -->
<g id="edge16" class="edge"><title>getVoice&#45;&gt;playVoice</title>
<path fill="none" stroke="darkblue" d="M941.923,-416.87C874.946,-434.698 775.648,-470.851 817,-521.292 846.15,-556.849 899.613,-563.762 940.728,-563.024"/>
<polygon fill="darkblue" stroke="darkblue" points="941.015,-566.517 950.892,-562.684 940.781,-559.521 941.015,-566.517"/>
</g>
<!-- getImgMsg&#45;&gt;showImg -->
<g id="edge17" class="edge"><title>getImgMsg&#45;&gt;showImg</title>
<path fill="none" stroke="darkblue" d="M933.941,-342.889C893.867,-343.263 844.519,-351.541 817,-385.292 799.025,-407.337 800.021,-426.471 817,-449.292 844.739,-486.574 897.33,-499.086 938.532,-502.851"/>
<polygon fill="darkblue" stroke="darkblue" points="938.503,-506.359 948.74,-503.629 939.035,-499.379 938.503,-506.359"/>
</g>
</g>
</svg>
