<?xml version="1.0" encoding="UTF-8" standalone="no"?>
<!-- Generated by graphviz version 2.36.0 (20140111.2315)
 -->

<!-- Title: webwx Pages: 1 -->

<svg
   xmlns:dc="http://purl.org/dc/elements/1.1/"
   xmlns:cc="http://creativecommons.org/ns#"
   xmlns:rdf="http://www.w3.org/1999/02/22-rdf-syntax-ns#"
   xmlns:svg="http://www.w3.org/2000/svg"
   xmlns="http://www.w3.org/2000/svg"
   xmlns:sodipodi="http://sodipodi.sourceforge.net/DTD/sodipodi-0.dtd"
   xmlns:inkscape="http://www.inkscape.org/namespaces/inkscape"
   width="1228pt"
   height="815pt"
   viewBox="0.00 0.00 1228.00 815.29"
   id="svg2"
   version="1.1"
   inkscape:version="0.48.4 r9939"
   sodipodi:docname="webwx.dot.svg">
  <metadata
     id="metadata439">
    <rdf:RDF>
      <cc:Work
         rdf:about="">
        <dc:format>image/svg+xml</dc:format>
        <dc:type
           rdf:resource="http://purl.org/dc/dcmitype/StillImage" />
      </cc:Work>
    </rdf:RDF>
  </metadata>
  <defs
     id="defs437" />
  <sodipodi:namedview
     pagecolor="#ffffff"
     bordercolor="#666666"
     borderopacity="1"
     objecttolerance="10"
     gridtolerance="10"
     guidetolerance="10"
     inkscape:pageopacity="0"
     inkscape:pageshadow="2"
     inkscape:window-width="1366"
     inkscape:window-height="708"
     id="namedview435"
     showgrid="false"
     inkscape:zoom="0.43778502"
     inkscape:cx="701.65891"
     inkscape:cy="478.92682"
     inkscape:window-x="0"
     inkscape:window-y="27"
     inkscape:window-maximized="1"
     inkscape:current-layer="svg2" />
  <g
     id="graph0"
     class="graph"
     transform="scale(1 1) rotate(0) translate(4 811.292)">
    <title
       id="title5">webwx</title>
    <polygon
       fill="lightgray"
       stroke="none"
       points="-4,4 -4,-811.292 1224,-811.292 1224,4 -4,4"
       id="polygon7" />
    <g
       id="clust1"
       class="cluster">
      <title
         id="title10">cluster_login</title>
      <polygon
         fill="lightgray"
         stroke="darkgray"
         points="112,-169.292 112,-440.292 436,-440.292 436,-169.292 112,-169.292"
         id="polygon12" />
      <text
         text-anchor="middle"
         x="274"
         y="-425.092"
         font-family="Times,serif"
         font-size="14.00"
         id="text14">login.weixin.qq.com</text>
    </g>
    <g
       id="clust2"
       class="cluster">
      <title
         id="title17">cluster_getQrImage</title>
      <polygon
         fill="lightgray"
         stroke="darkgray"
         points="120,-218.292 120,-369.292 236,-369.292 236,-218.292 120,-218.292"
         id="polygon19" />
      <text
         text-anchor="middle"
         x="178"
         y="-354.092"
         font-family="Times,serif"
         font-size="14.00"
         id="text21">获取二维码图像</text>
    </g>
    <g
       id="clust4"
       class="cluster">
      <title
         id="title24">cluster_checkScanStatus</title>
      <polygon
         fill="lightgray"
         stroke="darkgray"
         points="266,-177.292 266,-409.292 428,-409.292 428,-177.292 266,-177.292"
         id="polygon26" />
      <text
         text-anchor="middle"
         x="347"
         y="-394.092"
         font-family="Times,serif"
         font-size="14.00"
         id="text28">检查扫描状态</text>
      <text
         text-anchor="middle"
         x="347"
         y="-379.092"
         font-family="Times,serif"
         font-size="14.00"
         id="text30">(login)</text>
    </g>
    <g
       id="clust6"
       class="cluster">
      <title
         id="title33">cluster_webpush</title>
      <polygon
         fill="lightgray"
         stroke="darkgray"
         points="922,-40.2921 922,-150.292 1072,-150.292 1072,-40.2921 922,-40.2921"
         id="polygon35" />
      <text
         text-anchor="middle"
         x="997"
         y="-135.092"
         font-family="Times,serif"
         font-size="14.00"
         id="text37">webpush.weixin.qq.com</text>
    </g>
    <g
       id="clust7"
       class="cluster">
      <title
         id="title40">cluster_Client</title>
      <polygon
         fill="lightgray"
         stroke="darkgray"
         points="554,-469.292 554,-799.292 1212,-799.292 1212,-469.292 554,-469.292"
         id="polygon42" />
      <text
         text-anchor="middle"
         x="883"
         y="-784.092"
         font-family="Times,serif"
         font-size="14.00"
         id="text44">客户端AngularJS应用</text>
    </g>
    <g
       id="clust8"
       class="cluster">
      <title
         id="title47">cluster_UI</title>
      <polygon
         fill="lightgray"
         stroke="darkgray"
         points="904,-477.292 904,-768.292 1204,-768.292 1204,-477.292 904,-477.292"
         id="polygon49" />
      <text
         text-anchor="middle"
         x="1054"
         y="-753.092"
         font-family="Times,serif"
         font-size="14.00"
         id="text51">用户界面</text>
    </g>
    <g
       id="clust11"
       class="cluster">
      <title
         id="title54">cluster_webwx</title>
      <polygon
         fill="lightgray"
         stroke="darkgray"
         points="568,-158.292 568,-454.292 1068,-454.292 1068,-158.292 568,-158.292"
         id="polygon56" />
      <text
         text-anchor="middle"
         x="818"
         y="-439.092"
         font-family="Times,serif"
         font-size="14.00"
         id="text58">wx.qq.com</text>
    </g>
    <!-- getUuid -->
    <g
       id="node1"
       class="node">
      <title
         id="title61">getUuid</title>
      <polygon
         fill="lightblue"
         stroke="black"
         points="217.5,-338.292 138.5,-338.292 138.5,-300.292 217.5,-300.292 217.5,-338.292"
         id="polygon63" />
      <text
         text-anchor="middle"
         x="178"
         y="-323.092"
         font-family="Times,serif"
         font-size="14.00"
         id="text65">获取UUID</text>
      <text
         text-anchor="middle"
         x="178"
         y="-308.092"
         font-family="Times,serif"
         font-size="14.00"
         id="text67">(jslogin)</text>
    </g>
    <!-- qrImage -->
    <g
       id="node2"
       class="node">
      <title
         id="title70">qrImage</title>
      <polygon
         fill="lightblue"
         stroke="black"
         points="222,-264.292 134,-264.292 134,-226.292 222,-226.292 222,-264.292"
         id="polygon72" />
      <text
         text-anchor="middle"
         x="178"
         y="-249.092"
         font-family="Times,serif"
         font-size="14.00"
         id="text74">获取二维码</text>
      <text
         text-anchor="middle"
         x="178"
         y="-234.092"
         font-family="Times,serif"
         font-size="14.00"
         id="text76">(qrcode))</text>
    </g>
    <!-- getUuid&#45;&gt;qrImage -->
    <g
       id="edge5"
       class="edge">
      <title
         id="title79">getUuid-&gt;qrImage</title>
      <path
         fill="none"
         stroke="darkblue"
         d="M178,-300.043C178,-292.226 178,-283.024 178,-274.418"
         id="path81" />
      <polygon
         fill="darkblue"
         stroke="darkblue"
         points="181.5,-274.349 178,-264.349 174.5,-274.349 181.5,-274.349"
         id="polygon83" />
      <text
         text-anchor="middle"
         x="167.5"
         y="-278.592"
         font-family="Times,serif"
         font-size="14.00"
         fill="darkblue"
         id="text85">uuid</text>
    </g>
    <!-- login -->
    <g
       id="node4"
       class="node">
      <title
         id="title88">login</title>
      <polygon
         fill="lightblue"
         stroke="black"
         points="405,-223.292 289,-223.292 289,-185.292 405,-185.292 405,-223.292"
         id="polygon90" />
      <text
         text-anchor="middle"
         x="347"
         y="-208.092"
         font-family="Times,serif"
         font-size="14.00"
         id="text92">等待扫描二维码</text>
      <text
         text-anchor="middle"
         x="347"
         y="-193.092"
         font-family="Times,serif"
         font-size="14.00"
         id="text94">(login))</text>
    </g>
    <!-- qrImage&#45;&gt;login -->
    <g
       id="edge2"
       class="edge">
      <title
         id="title97">qrImage-&gt;login</title>
      <path
         fill="none"
         stroke="darkblue"
         d="M222.007,-234.734C239.371,-230.47 259.819,-225.45 279.047,-220.73"
         id="path99" />
      <polygon
         fill="darkblue"
         stroke="darkblue"
         points="280.091,-224.077 288.968,-218.294 278.422,-217.279 280.091,-224.077"
         id="polygon101" />
    </g>
    <!-- start -->
    <g
       id="node3"
       class="node">
      <title
         id="title104">start</title>
      <polygon
         fill="lightblue"
         stroke="black"
         points="42,-337.292 0.775388,-319.292 42,-301.292 83.2246,-319.292 42,-337.292"
         id="polygon106" />
      <text
         text-anchor="middle"
         x="42"
         y="-315.592"
         font-family="Times,serif"
         font-size="14.00"
         id="text108">开始</text>
    </g>
    <!-- start&#45;&gt;getUuid -->
    <g
       id="edge1"
       class="edge">
      <title
         id="title111">start-&gt;getUuid</title>
      <path
         fill="none"
         stroke="darkblue"
         d="M83.5681,-319.292C97.5768,-319.292 113.422,-319.292 128.031,-319.292"
         id="path113" />
      <polygon
         fill="darkblue"
         stroke="darkblue"
         points="128.406,-322.792 138.406,-319.292 128.406,-315.792 128.406,-322.792"
         id="polygon115" />
    </g>
    <!-- login&#45;&gt;login -->
    <g
       id="edge6"
       class="edge">
      <title
         id="title118">login-&gt;login</title>
      <path
         fill="none"
         stroke="darkblue"
         d="M330.26,-223.329C327.943,-232.823 333.523,-241.292 347,-241.292 355.212,-241.292 360.492,-238.147 362.84,-233.542"
         id="path120" />
      <polygon
         fill="darkblue"
         stroke="darkblue"
         points="366.349,-233.598 363.74,-223.329 359.376,-232.983 366.349,-233.598"
         id="polygon122" />
      <text
         text-anchor="middle"
         x="347"
         y="-245.092"
         font-family="Times,serif"
         font-size="14.00"
         fill="darkblue"
         id="text124">408</text>
    </g>
    <!-- scaned -->
    <g
       id="node7"
       class="node">
      <title
         id="title127">scaned</title>
      <polygon
         fill="lightblue"
         stroke="black"
         points="419.5,-330.292 274.5,-330.292 274.5,-292.292 419.5,-292.292 419.5,-330.292"
         id="polygon129" />
      <text
         text-anchor="middle"
         x="347"
         y="-315.092"
         font-family="Times,serif"
         font-size="14.00"
         id="text131">已扫描请在手机确认</text>
      <text
         text-anchor="middle"
         x="347"
         y="-300.092"
         font-family="Times,serif"
         font-size="14.00"
         id="text133">(login))</text>
    </g>
    <!-- login&#45;&gt;scaned -->
    <g
       id="edge8"
       class="edge">
      <title
         id="title136">login-&gt;scaned</title>
      <path
         fill="none"
         stroke="darkblue"
         d="M347,-223.422C347,-239.677 347,-263.275 347,-281.924"
         id="path138" />
      <polygon
         fill="darkblue"
         stroke="darkblue"
         points="343.5,-281.967 347,-291.967 350.5,-281.968 343.5,-281.967"
         id="polygon140" />
      <text
         text-anchor="middle"
         x="336.5"
         y="-254.092"
         font-family="Times,serif"
         font-size="14.00"
         fill="darkblue"
         id="text142">201</text>
    </g>
    <!-- synccheck -->
    <g
       id="node5"
       class="node">
      <title
         id="title145">synccheck</title>
      <polygon
         fill="lightblue"
         stroke="black"
         points="1038,-86.2921 956,-86.2921 956,-48.2921 1038,-48.2921 1038,-86.2921"
         id="polygon147" />
      <text
         text-anchor="middle"
         x="997"
         y="-71.0921"
         font-family="Times,serif"
         font-size="14.00"
         id="text149">长连接</text>
      <text
         text-anchor="middle"
         x="997"
         y="-56.0921"
         font-family="Times,serif"
         font-size="14.00"
         id="text151">(synccheck)</text>
    </g>
    <!-- synccheck&#45;&gt;synccheck -->
    <g
       id="edge9"
       class="edge">
      <title
         id="title154">synccheck-&gt;synccheck</title>
      <path
         fill="none"
         stroke="darkblue"
         d="M969.706,-86.3293C965.929,-95.8234 975.027,-104.292 997,-104.292 1010.39,-104.292 1019,-101.147 1022.83,-96.5422"
         id="path156" />
      <polygon
         fill="darkblue"
         stroke="darkblue"
         points="1026.34,-96.7256 1024.29,-86.3293 1019.41,-95.7296 1026.34,-96.7256"
         id="polygon158" />
      <text
         text-anchor="middle"
         x="997"
         y="-108.092"
         font-family="Times,serif"
         font-size="14.00"
         fill="darkblue"
         id="text160">无须更新</text>
    </g>
    <!-- webwxlogout -->
    <g
       id="node6"
       class="node">
      <title
         id="title163">webwxlogout</title>
      <polygon
         fill="lightblue"
         stroke="black"
         points="1046.5,-311.292 947.5,-311.292 947.5,-273.292 1046.5,-273.292 1046.5,-311.292"
         id="polygon165" />
      <text
         text-anchor="middle"
         x="997"
         y="-296.092"
         font-family="Times,serif"
         font-size="14.00"
         id="text167">登出</text>
      <text
         text-anchor="middle"
         x="997"
         y="-281.092"
         font-family="Times,serif"
         font-size="14.00"
         id="text169">(webwxlogout)</text>
    </g>
    <!-- synccheck&#45;&gt;webwxlogout -->
    <g
       id="edge3"
       class="edge">
      <title
         id="title172">synccheck-&gt;webwxlogout</title>
      <path
         fill="none"
         stroke="#990033"
         stroke-dasharray="1,5"
         d="M997,-86.4754C997,-125.912 997,-216.303 997,-263.068"
         id="path174" />
      <polygon
         fill="#990033"
         stroke="#990033"
         points="993.5,-263.157 997,-273.157 1000.5,-263.157 993.5,-263.157"
         id="polygon176" />
      <text
         text-anchor="middle"
         x="986.5"
         y="-176.092"
         font-family="Times,serif"
         font-size="14.00"
         fill="#990033"
         id="text178">掉线</text>
    </g>
    <!-- webwxsync -->
    <g
       id="node18"
       class="node">
      <title
         id="title181">webwxsync</title>
      <polygon
         fill="lightblue"
         stroke="black"
         points="893.5,-314.292 748.5,-314.292 748.5,-276.292 893.5,-276.292 893.5,-314.292"
         id="polygon183" />
      <text
         text-anchor="middle"
         x="821"
         y="-299.092"
         font-family="Times,serif"
         font-size="14.00"
         id="text185">更新服务器推送信息</text>
      <text
         text-anchor="middle"
         x="821"
         y="-284.092"
         font-family="Times,serif"
         font-size="14.00"
         id="text187">(webwxsync)</text>
    </g>
    <!-- synccheck&#45;&gt;webwxsync -->
    <g
       id="edge22"
       class="edge">
      <title
         id="title190">synccheck-&gt;webwxsync</title>
      <path
         fill="none"
         stroke="darkblue"
         d="M978.657,-86.4229C958.436,-104.594 925.101,-132.715 904,-163.292 897.437,-172.803 899.267,-177.006 894,-187.292 879.478,-215.653 860.505,-246.276 845.681,-267.798"
         id="path192" />
      <polygon
         fill="darkblue"
         stroke="darkblue"
         points="842.701,-265.952 839.813,-276.145 848.428,-269.977 842.701,-265.952"
         id="polygon194" />
    </g>
    <!-- webwxlogout&#45;&gt;getUuid -->
    <g
       id="edge4"
       class="edge">
      <title
         id="title197">webwxlogout-&gt;getUuid</title>
      <path
         fill="none"
         stroke="darkblue"
         d="M947.333,-304.414C933.07,-308.679 917.648,-314.006 904,-320.292 820.684,-358.668 818.057,-405.597 730,-431.292 630.943,-460.198 359.217,-457.546 266,-413.292 235.853,-398.98 211.152,-369.143 195.874,-346.902"
         id="path199" />
      <polygon
         fill="darkblue"
         stroke="darkblue"
         points="198.743,-344.896 190.297,-338.501 192.911,-348.768 198.743,-344.896"
         id="polygon201" />
      <text
         text-anchor="middle"
         x="494"
         y="-454.092"
         font-family="Times,serif"
         font-size="14.00"
         fill="darkblue"
         id="text203">重定向重新登录</text>
    </g>
    <!-- scaned&#45;&gt;scaned -->
    <g
       id="edge7"
       class="edge">
      <title
         id="title206">scaned-&gt;scaned</title>
      <path
         fill="none"
         stroke="darkblue"
         d="M330.26,-330.329C327.943,-339.823 333.523,-348.292 347,-348.292 355.212,-348.292 360.492,-345.147 362.84,-340.542"
         id="path208" />
      <polygon
         fill="darkblue"
         stroke="darkblue"
         points="366.349,-340.598 363.74,-330.329 359.376,-339.983 366.349,-340.598"
         id="polygon210" />
      <text
         text-anchor="middle"
         x="347"
         y="-352.092"
         font-family="Times,serif"
         font-size="14.00"
         fill="darkblue"
         id="text212">408</text>
    </g>
    <!-- webwxnewloginpage -->
    <g
       id="node15"
       class="node">
      <title
         id="title215">webwxnewloginpage</title>
      <polygon
         fill="lightblue"
         stroke="black"
         points="716,-260.292 576,-260.292 576,-222.292 716,-222.292 716,-260.292"
         id="polygon217" />
      <text
         text-anchor="middle"
         x="646"
         y="-245.092"
         font-family="Times,serif"
         font-size="14.00"
         id="text219">重定向的登录页面</text>
      <text
         text-anchor="middle"
         x="646"
         y="-230.092"
         font-family="Times,serif"
         font-size="14.00"
         id="text221">(webwxnewloginpage)</text>
    </g>
    <!-- scaned&#45;&gt;webwxnewloginpage -->
    <g
       id="edge11"
       class="edge">
      <title
         id="title224">scaned-&gt;webwxnewloginpage</title>
      <path
         fill="none"
         stroke="darkblue"
         d="M419.517,-294.436C463.732,-284.015 520.533,-270.628 566.063,-259.897"
         id="path226" />
      <polygon
         fill="darkblue"
         stroke="darkblue"
         points="566.964,-263.28 575.894,-257.58 565.358,-256.467 566.964,-263.28"
         id="polygon228" />
      <text
         text-anchor="middle"
         x="494"
         y="-293.092"
         font-family="Times,serif"
         font-size="14.00"
         fill="darkblue"
         id="text230">200</text>
    </g>
    <!-- updateMsg -->
    <g
       id="node8"
       class="node">
      <title
         id="title233">updateMsg</title>
      <polygon
         fill="lightblue"
         stroke="black"
         points="729.066,-559.292 687.533,-590.346 604.467,-590.346 562.934,-559.292 604.467,-528.238 687.533,-528.238 729.066,-559.292"
         id="polygon235" />
      <text
         text-anchor="middle"
         x="646"
         y="-563.092"
         font-family="Times,serif"
         font-size="14.00"
         id="text237">查看需要</text>
      <text
         text-anchor="middle"
         x="646"
         y="-548.092"
         font-family="Times,serif"
         font-size="14.00"
         id="text239">更新哪些内容</text>
    </g>
    <!-- showText -->
    <g
       id="node11"
       class="node">
      <title
         id="title242">showText</title>
      <ellipse
         fill="lightblue"
         stroke="black"
         cx="997"
         cy="-611.292"
         rx="66.0889"
         ry="18"
         id="ellipse244"
         d="m 1063.0889,-611.29199 c 0,9.94112 -29.589,18 -66.0889,18 -36.49989,0 -66.0889,-8.05888 -66.0889,-18 0,-9.94113 29.58901,-18 66.0889,-18 36.4999,0 66.0889,8.05887 66.0889,18 z" />
      <text
         text-anchor="middle"
         x="997"
         y="-607.592"
         font-family="Times,serif"
         font-size="14.00"
         id="text246">展示文本信息</text>
    </g>
    <!-- updateMsg&#45;&gt;showText -->
    <g
       id="edge10"
       class="edge">
      <title
         id="title249">updateMsg-&gt;showText</title>
      <path
         fill="none"
         stroke="darkblue"
         d="M715.535,-569.504C777.213,-578.693 867.317,-592.119 928.633,-601.255"
         id="path251" />
      <polygon
         fill="darkblue"
         stroke="darkblue"
         points="928.189,-604.727 938.596,-602.739 929.221,-597.803 928.189,-604.727"
         id="polygon253" />
      <text
         text-anchor="middle"
         x="821"
         y="-599.092"
         font-family="Times,serif"
         font-size="14.00"
         fill="darkblue"
         id="text255">Content经过一定替换</text>
    </g>
    <!-- updateStatus -->
    <g
       id="node13"
       class="node">
      <title
         id="title258">updateStatus</title>
      <ellipse
         fill="lightblue"
         stroke="black"
         cx="997"
         cy="-665.292"
         rx="85.2851"
         ry="18"
         id="ellipse260"
         d="m 1082.2851,-665.29199 c 0,9.94112 -38.1834,18 -85.2851,18 -47.10166,0 -85.2851,-8.05888 -85.2851,-18 0,-9.94113 38.18344,-18 85.2851,-18 47.1017,0 85.2851,8.05887 85.2851,18 z" />
      <text
         text-anchor="middle"
         x="997"
         y="-661.592"
         font-family="Times,serif"
         font-size="14.00"
         id="text262">其他状态信息更新</text>
    </g>
    <!-- updateMsg&#45;&gt;updateStatus -->
    <g
       id="edge19"
       class="edge">
      <title
         id="title265">updateMsg-&gt;updateStatus</title>
      <path
         fill="none"
         stroke="darkblue"
         d="M691.661,-587.317C708.76,-597.042 728.781,-607.26 748,-614.292 801.488,-633.861 864.364,-646.686 913.422,-654.581"
         id="path267" />
      <polygon
         fill="darkblue"
         stroke="darkblue"
         points="912.935,-658.047 923.357,-656.143 914.022,-651.132 912.935,-658.047"
         id="polygon269" />
      <text
         text-anchor="middle"
         x="821"
         y="-654.092"
         font-family="Times,serif"
         font-size="14.00"
         fill="darkblue"
         id="text271">其他状态变化</text>
    </g>
    <!-- updateContact -->
    <g
       id="node14"
       class="node">
      <title
         id="title274">updateContact</title>
      <ellipse
         fill="lightblue"
         stroke="black"
         cx="997"
         cy="-719.292"
         rx="75.2868"
         ry="18"
         id="ellipse276"
         d="m 1072.2868,-719.29199 c 0,9.94112 -33.7071,18 -75.2868,18 -41.57975,0 -75.2868,-8.05888 -75.2868,-18 0,-9.94113 33.70705,-18 75.2868,-18 41.5797,0 75.2868,8.05887 75.2868,18 z" />
      <text
         text-anchor="middle"
         x="997"
         y="-715.592"
         font-family="Times,serif"
         font-size="14.00"
         id="text278">更新联系人变动</text>
    </g>
    <!-- updateMsg&#45;&gt;updateContact -->
    <g
       id="edge15"
       class="edge">
      <title
         id="title281">updateMsg-&gt;updateContact</title>
      <path
         fill="none"
         stroke="darkblue"
         d="M667.186,-590.426C685.272,-615.707 714.126,-650.189 748,-669.292 798.109,-697.55 861.86,-709.981 912.178,-715.384"
         id="path283" />
      <polygon
         fill="darkblue"
         stroke="darkblue"
         points="912.079,-718.891 922.378,-716.403 912.776,-711.926 912.079,-718.891"
         id="polygon285" />
      <text
         text-anchor="middle"
         x="821"
         y="-716.092"
         font-family="Times,serif"
         font-size="14.00"
         fill="darkblue"
         id="text287">modContactList</text>
    </g>
    <!-- getVoice -->
    <g
       id="node20"
       class="node">
      <title
         id="title290">getVoice</title>
      <polygon
         fill="lightblue"
         stroke="black"
         points="1052,-423.292 942,-423.292 942,-385.292 1052,-385.292 1052,-423.292"
         id="polygon292" />
      <text
         text-anchor="middle"
         x="997"
         y="-408.092"
         font-family="Times,serif"
         font-size="14.00"
         id="text294">获取语音</text>
      <text
         text-anchor="middle"
         x="997"
         y="-393.092"
         font-family="Times,serif"
         font-size="14.00"
         id="text296">(webwxgetvoice)</text>
    </g>
    <!-- updateMsg&#45;&gt;getVoice -->
    <g
       id="edge13"
       class="edge">
      <title
         id="title299">updateMsg-&gt;getVoice</title>
      <path
         fill="none"
         stroke="darkblue"
         d="M723.012,-554.765C786.277,-549.416 869.771,-538.167 894,-515.292 907.952,-502.119 893.476,-489.337 904,-473.292 915.749,-455.379 933.811,-440.361 950.83,-428.957"
         id="path301" />
      <polygon
         fill="darkblue"
         stroke="darkblue"
         points="953.073,-431.676 959.596,-423.327 949.29,-425.787 953.073,-431.676"
         id="polygon303" />
      <text
         text-anchor="middle"
         x="821"
         y="-557.092"
         font-family="Times,serif"
         font-size="14.00"
         fill="darkblue"
         id="text305">msgiId</text>
    </g>
    <!-- getImgMsg -->
    <g
       id="node21"
       class="node">
      <title
         id="title308">getImgMsg</title>
      <polygon
         fill="lightblue"
         stroke="black"
         points="1060,-367.292 934,-367.292 934,-329.292 1060,-329.292 1060,-367.292"
         id="polygon310" />
      <text
         text-anchor="middle"
         x="997"
         y="-352.092"
         font-family="Times,serif"
         font-size="14.00"
         id="text312">获取图像</text>
      <text
         text-anchor="middle"
         x="997"
         y="-337.092"
         font-family="Times,serif"
         font-size="14.00"
         id="text314">(webwxgetmsgimg)</text>
    </g>
    <!-- updateMsg&#45;&gt;getImgMsg -->
    <g
       id="edge14"
       class="edge">
      <title
         id="title317">updateMsg-&gt;getImgMsg</title>
      <path
         fill="none"
         stroke="darkblue"
         d="M688.485,-528.842C706.091,-517.16 727.301,-504.643 748,-496.292 809.518,-471.474 849.431,-514.425 894,-465.292 920.743,-435.81 878.552,-406.899 904,-376.292 909.524,-369.649 916.574,-364.547 924.307,-360.635"
         id="path319" />
      <polygon
         fill="darkblue"
         stroke="darkblue"
         points="925.877,-363.769 933.649,-356.568 923.083,-357.351 925.877,-363.769"
         id="polygon321" />
      <text
         text-anchor="middle"
         x="821"
         y="-500.092"
         font-family="Times,serif"
         font-size="14.00"
         fill="darkblue"
         id="text323">msgiId</text>
    </g>
    <!-- sendMsg -->
    <g
       id="node9"
       class="node">
      <title
         id="title326">sendMsg</title>
      <ellipse
         fill="lightblue"
         stroke="black"
         cx="1148"
         cy="-503.292"
         rx="48.1917"
         ry="18"
         id="ellipse328"
         d="m 1196.1917,-503.29199 c 0,9.94112 -21.5762,18 -48.1917,18 -26.6155,0 -48.1917,-8.05888 -48.1917,-18 0,-9.94113 21.5762,-18 48.1917,-18 26.6155,0 48.1917,8.05887 48.1917,18 z" />
      <text
         text-anchor="middle"
         x="1148"
         y="-499.592"
         font-family="Times,serif"
         font-size="14.00"
         id="text330">发送消息</text>
    </g>
    <!-- webwxsendmsg -->
    <g
       id="node19"
       class="node">
      <title
         id="title333">webwxsendmsg</title>
      <polygon
         fill="lightblue"
         stroke="black"
         points="702.5,-204.292 589.5,-204.292 589.5,-166.292 702.5,-166.292 702.5,-204.292"
         id="polygon335" />
      <text
         text-anchor="middle"
         x="646"
         y="-189.092"
         font-family="Times,serif"
         font-size="14.00"
         id="text337">发送消息</text>
      <text
         text-anchor="middle"
         x="646"
         y="-174.092"
         font-family="Times,serif"
         font-size="14.00"
         id="text339">(webwxsendmsg)</text>
    </g>
    <!-- sendMsg&#45;&gt;webwxsendmsg -->
    <g
       id="edge18"
       class="edge">
      <title
         id="title342">sendMsg-&gt;webwxsendmsg</title>
      <path
         fill="none"
         stroke="darkblue"
         d="M1147.46,-485.264C1149.07,-406.798 1150.92,-96.2846 1082,-36.2921 957.385,72.1794 749.955,-92.1142 675.055,-159.041"
         id="path344" />
      <polygon
         fill="darkblue"
         stroke="darkblue"
         points="672.48,-156.651 667.406,-165.951 677.173,-161.845 672.48,-156.651"
         id="polygon346" />
      <text
         text-anchor="middle"
         x="821"
         y="-103.092"
         font-family="Times,serif"
         font-size="14.00"
         fill="darkblue"
         id="text348">文本消息</text>
    </g>
    <!-- playVoice -->
    <g
       id="node10"
       class="node">
      <title
         id="title351">playVoice</title>
      <ellipse
         fill="lightblue"
         stroke="black"
         cx="997"
         cy="-557.292"
         rx="48.1917"
         ry="18"
         id="ellipse353"
         d="m 1045.1917,-557.29199 c 0,9.94112 -21.5762,18 -48.1917,18 -26.61554,0 -48.1917,-8.05888 -48.1917,-18 0,-9.94113 21.57616,-18 48.1917,-18 26.6155,0 48.1917,8.05887 48.1917,18 z" />
      <text
         text-anchor="middle"
         x="997"
         y="-553.592"
         font-family="Times,serif"
         font-size="14.00"
         id="text355">播放声音</text>
    </g>
    <!-- showImg -->
    <g
       id="node12"
       class="node">
      <title
         id="title358">showImg</title>
      <ellipse
         fill="lightblue"
         stroke="black"
         cx="997"
         cy="-503.292"
         rx="48.1917"
         ry="18"
         id="ellipse360"
         d="m 1045.1917,-503.29199 c 0,9.94112 -21.5762,18 -48.1917,18 -26.61554,0 -48.1917,-8.05888 -48.1917,-18 0,-9.94113 21.57616,-18 48.1917,-18 26.6155,0 48.1917,8.05887 48.1917,18 z" />
      <text
         text-anchor="middle"
         x="997"
         y="-499.592"
         font-family="Times,serif"
         font-size="14.00"
         id="text362">显示图像</text>
    </g>
    <!-- webwxinit -->
    <g
       id="node16"
       class="node">
      <title
         id="title365">webwxinit</title>
      <polygon
         fill="lightblue"
         stroke="black"
         points="701,-334.292 591,-334.292 591,-296.292 701,-296.292 701,-334.292"
         id="polygon367" />
      <text
         text-anchor="middle"
         x="646"
         y="-319.092"
         font-family="Times,serif"
         font-size="14.00"
         id="text369">web微信初始化</text>
      <text
         text-anchor="middle"
         x="646"
         y="-304.092"
         font-family="Times,serif"
         font-size="14.00"
         id="text371">(webwxinit)</text>
    </g>
    <!-- webwxnewloginpage&#45;&gt;webwxinit -->
    <g
       id="edge12"
       class="edge">
      <title
         id="title374">webwxnewloginpage-&gt;webwxinit</title>
      <path
         fill="none"
         stroke="darkblue"
         d="M646,-260.349C646,-268.143 646,-277.338 646,-285.954"
         id="path376" />
      <polygon
         fill="darkblue"
         stroke="darkblue"
         points="642.5,-286.043 646,-296.043 649.5,-286.043 642.5,-286.043"
         id="polygon378" />
      <text
         text-anchor="middle"
         x="635.5"
         y="-274.592"
         font-family="Times,serif"
         font-size="14.00"
         fill="darkblue"
         id="text380">会话身份信息</text>
    </g>
    <!-- webwxgetcontact -->
    <g
       id="node17"
       class="node">
      <title
         id="title383">webwxgetcontact</title>
      <polygon
         fill="lightblue"
         stroke="black"
         points="706,-422.792 586,-422.792 586,-369.792 706,-369.792 706,-422.792"
         id="polygon385" />
      <text
         text-anchor="middle"
         x="646"
         y="-407.592"
         font-family="Times,serif"
         font-size="14.00"
         id="text387">获取联系人信息</text>
      <text
         text-anchor="middle"
         x="646"
         y="-392.592"
         font-family="Times,serif"
         font-size="14.00"
         id="text389">初始synckey</text>
      <text
         text-anchor="middle"
         x="646"
         y="-377.592"
         font-family="Times,serif"
         font-size="14.00"
         id="text391">(webwxgetcontact)</text>
    </g>
    <!-- webwxinit&#45;&gt;webwxgetcontact -->
    <g
       id="edge20"
       class="edge">
      <title
         id="title394">webwxinit-&gt;webwxgetcontact</title>
      <path
         fill="none"
         stroke="darkblue"
         d="M646,-334.593C646,-342.932 646,-351.27 646,-359.609"
         id="path396" />
      <polygon
         fill="darkblue"
         stroke="darkblue"
         points="642.5,-359.781 646,-369.781 649.5,-359.781 642.5,-359.781"
         id="polygon398" />
    </g>
    <!-- webwxgetcontact&#45;&gt;synccheck -->
    <g
       id="edge21"
       class="edge">
      <title
         id="title401">webwxgetcontact-&gt;synccheck</title>
      <path
         fill="none"
         stroke="darkblue"
         d="M701.668,-369.952C712.377,-362.624 722.575,-353.747 730,-343.292 750.099,-314.991 729.492,-296.659 748,-267.292 798.948,-186.451 894.073,-123.638 950.548,-91.3368"
         id="path403" />
      <polygon
         fill="darkblue"
         stroke="darkblue"
         points="952.279,-94.3792 959.268,-86.4165 948.839,-88.2828 952.279,-94.3792"
         id="polygon405" />
    </g>
    <!-- webwxsync&#45;&gt;synccheck -->
    <g
       id="edge24"
       class="edge">
      <title
         id="title408">webwxsync-&gt;synccheck</title>
      <path
         fill="none"
         stroke="red"
         stroke-dasharray="5,2"
         d="M831.372,-275.941C845.863,-251.236 874.108,-208.142 894,-169.292 899.267,-159.006 897.437,-154.803 904,-145.292 917.413,-125.856 935.768,-107.413 952.557,-93.2164"
         id="path410" />
      <polygon
         fill="red"
         stroke="red"
         points="955.119,-95.6425 960.644,-86.6025 950.687,-90.2239 955.119,-95.6425"
         id="polygon412" />
    </g>
    <!-- webwxsync&#45;&gt;updateMsg -->
    <g
       id="edge23"
       class="edge">
      <title
         id="title415">webwxsync-&gt;updateMsg</title>
      <path
         fill="none"
         stroke="green"
         stroke-width="2"
         d="M810.82,-314.532C795.627,-345.719 763.579,-408.806 730,-458.292 715.523,-479.627 697.55,-501.916 682.035,-520.111"
         id="path417" />
      <polygon
         fill="green"
         stroke="green"
         stroke-width="2"
         points="678.973,-518.302 675.101,-528.164 684.278,-522.87 678.973,-518.302"
         id="polygon419" />
    </g>
    <!-- getVoice&#45;&gt;playVoice -->
    <g
       id="edge16"
       class="edge">
      <title
         id="title422">getVoice-&gt;playVoice</title>
      <path
         fill="none"
         stroke="darkblue"
         d="M941.923,-416.87C874.946,-434.698 775.648,-470.851 817,-521.292 846.15,-556.849 899.613,-563.762 940.728,-563.024"
         id="path424" />
      <polygon
         fill="darkblue"
         stroke="darkblue"
         points="941.015,-566.517 950.892,-562.684 940.781,-559.521 941.015,-566.517"
         id="polygon426" />
    </g>
    <!-- getImgMsg&#45;&gt;showImg -->
    <g
       id="edge17"
       class="edge">
      <title
         id="title429">getImgMsg-&gt;showImg</title>
      <path
         fill="none"
         stroke="darkblue"
         d="M933.941,-342.889C893.867,-343.263 844.519,-351.541 817,-385.292 799.025,-407.337 800.021,-426.471 817,-449.292 844.739,-486.574 897.33,-499.086 938.532,-502.851"
         id="path431" />
      <polygon
         fill="darkblue"
         stroke="darkblue"
         points="938.503,-506.359 948.74,-503.629 939.035,-499.379 938.503,-506.359"
         id="polygon433" />
    </g>
  </g>
  <text
     xml:space="preserve"
     style="font-size:40px;font-style:normal;font-weight:normal;line-height:125%;letter-spacing:0px;word-spacing:0px;fill:#000000;fill-opacity:1;stroke:none;font-family:Sans"
     x="61.674107"
     y="920.52826"
     id="text3416"
     sodipodi:linespacing="125%"
     transform="matrix(0.80028466,0,0,0.80028466,-0.21847853,0)"><tspan
       sodipodi:role="line"
       id="tspan3418"
       x="61.674107"
       y="920.52826">Present By <tspan
   style="-inkscape-font-specification:Tibetan Machine Uni;font-family:Tibetan Machine Uni;font-weight:normal;font-style:normal;font-stretch:normal;font-variant:normal"
   id="tspan3422">HalfDogStudio</tspan></tspan><tspan
       sodipodi:role="line"
       x="61.674107"
       y="970.52826"
       id="tspan3420">2016.01.24</tspan></text>
</svg>
